<svg width="24" height="24" viewBox="0 0 24 24" fill="none" xmlns="http://www.w3.org/2000/svg">
<path d="M12 2.00002C12 2.00002 14 2.00003 15.5 3.50003C17 5.00003 17 7.00002 17 7.00002L15 9.00002L16 10L18 8.00002C18 8.00002 20 8.00003 21.5 9.50003C23 11 23 13 23 13L22 13C22 13 22 11.5 20.5 10C19 8.50003 17 8.50002 17 8.50002L15.5 10L14 8.50002L12 10.5L10 8.50002L8.50001 10L7.00001 8.50002C7.00001 8.50002 5.00003 8.50003 3.50003 10C2.00003 11.5 2.00002 13 2.00002 13L1.00002 13C1.00002 13 1.00003 11 2.50003 9.50003C4.00003 8.00003 6.00002 8.00002 6.00002 8.00002L8.00001 10L9.00001 9.00002L7.00001 7.00002C7.00001 7.00002 7.00003 5.00003 8.50003 3.50003C10 2.00003 12 2.00002 12 2.00002ZM12 4.00002C11.1667 4.83335 10.8333 5.16668 10.5 6.00002L12 7.50002L13.5 6.00002C13.1667 5.16668 12.8333 4.83335 12 4.00002ZM6.00002 12L7.00002 11L9.00002 13L8.00002 14C8.00002 14 6.50002 14.5 5.50002 15.5C4.50002 16.5 4.00002 18 4.00002 18L5.00002 17C5.00002 17 5.33335 16.1667 6.00002 15.5C6.66668 14.8333 7.50002 14.5 7.50002 14.5L9.00002 16L12 13L15 16L16.5 14.5C16.5 14.5 17.3333 14.8333 18 15.5C18.6667 16.1667 19 17 19 17L20 18C20 18 19.5 16.5 18.5 15.5C17.5 14.5 16 14 16 14L15 13L17 11L18 12L16.5 13.5L15 12L12 15L9.00002 12L7.50002 13.5L6.00002 12ZM12 16L13 17L12 18L11 17L12 16ZM10 19C10 19 10.5 20.5 12 20.5C13.5 20.5 14 19 14 19L12 22L10 19Z" fill="currentColor"/>
</svg>
